<svg xmlns="http://www.w3.org/2000/svg" xmlns:xlink="http://www.w3.org/1999/xlink" width="48" zoomAndPan="magnify" viewBox="0 0 36 36.000001" height="48" preserveAspectRatio="xMidYMid meet" version="1.0"><defs><clipPath id="5340018f81"><path d="M 0.488281 0 L 35.511719 0 L 35.511719 35.027344 L 0.488281 35.027344 Z M 0.488281 0 " clip-rule="nonzero"/></clipPath><clipPath id="aa83ec3167"><path d="M 17 5.300781 L 29.867188 5.300781 L 29.867188 18 L 17 18 Z M 17 5.300781 " clip-rule="nonzero"/></clipPath><clipPath id="078428ee8a"><path d="M 17 17 L 29.867188 17 L 29.867188 29.378906 L 17 29.378906 Z M 17 17 " clip-rule="nonzero"/></clipPath><clipPath id="2c2dbf5f72"><path d="M 5.785156 17 L 18 17 L 18 29.378906 L 5.785156 29.378906 Z M 5.785156 17 " clip-rule="nonzero"/></clipPath><clipPath id="736c121e51"><path d="M 5.785156 5.300781 L 18 5.300781 L 18 18 L 5.785156 18 Z M 5.785156 5.300781 " clip-rule="nonzero"/></clipPath></defs><g clip-path="url(#5340018f81)"><path fill="#ffffff" d="M 0.488281 0 L 35.511719 0 L 35.511719 35.027344 L 0.488281 35.027344 Z M 0.488281 0 " fill-opacity="1" fill-rule="nonzero"/><path fill="#0088cc" d="M 0.488281 0 L 35.511719 0 L 35.511719 35.027344 L 0.488281 35.027344 Z M 0.488281 0 " fill-opacity="1" fill-rule="nonzero"/></g><g clip-path="url(#aa83ec3167)"><path fill="#ffffff" d="M 30.210938 5.398438 L 30.210938 16.503906 C 28.769531 16.183594 27.273438 16.019531 25.738281 16.019531 C 23 16.019531 20.390625 16.546875 17.996094 17.511719 C 18.960938 15.121094 19.492188 12.507812 19.492188 9.769531 C 19.492188 8.269531 19.332031 6.804688 19.027344 5.398438 Z M 30.210938 5.398438 " fill-opacity="1" fill-rule="evenodd"/></g><g clip-path="url(#078428ee8a)"><path fill="#ffffff" d="M 30.109375 29.722656 L 19.003906 29.722656 C 19.324219 28.28125 19.492188 26.789062 19.492188 25.253906 C 19.492188 22.515625 18.960938 19.902344 17.996094 17.511719 C 20.390625 18.472656 23 19.003906 25.738281 19.003906 C 27.238281 19.003906 28.703125 18.84375 30.109375 18.539062 Z M 30.109375 29.722656 " fill-opacity="1" fill-rule="evenodd"/></g><g clip-path="url(#2c2dbf5f72)"><path fill="#ffffff" d="M 5.785156 29.625 L 5.785156 18.519531 C 7.226562 18.835938 8.71875 19.003906 10.257812 19.003906 C 12.996094 19.003906 15.605469 18.472656 17.996094 17.511719 C 17.035156 19.902344 16.503906 22.515625 16.503906 25.253906 C 16.503906 26.753906 16.660156 28.214844 16.96875 29.625 Z M 5.785156 29.625 " fill-opacity="1" fill-rule="evenodd"/></g><g clip-path="url(#736c121e51)"><path fill="#ffffff" d="M 5.882812 5.300781 L 16.992188 5.300781 C 16.671875 6.742188 16.503906 8.234375 16.503906 9.769531 C 16.503906 12.507812 17.035156 15.121094 17.996094 17.511719 C 15.605469 16.546875 12.996094 16.019531 10.257812 16.019531 C 8.753906 16.019531 7.292969 16.179688 5.882812 16.484375 Z M 5.882812 5.300781 " fill-opacity="1" fill-rule="evenodd"/></g></svg>